<svg xmlns="http://www.w3.org/2000/svg" viewBox="0 0 1000 960"><title>map</title><path d="M170-240c5.5,0,13.18,3.18,17.07,7.07L412.93-7.07C416.82-3.18,420,4.5,420,10V310c0,5.5-3.18,13.18-7.07,17.07l-85.86,85.86C323.18,416.82,320,424.5,320,430V950c0,5.5,3.18,13.18,7.07,17.07l85.86,85.86c3.89,3.89,7.07,11.57,7.07,17.07v280c0,5.5-3.18,13.18-7.07,17.07L187.07,1592.93c-3.89,3.89-11.57,7.07-17.07,7.07H-290c-5.5,0-13.18-3.18-17.07-7.07l-225.86-225.86c-3.89-3.89-7.07-11.57-7.07-17.07V10c0-5.5,3.18-13.18,7.07-17.07l225.86-225.86c3.89-3.89,11.57-7.07,17.07-7.07Z" fill="#f2f2f2"/><path d="M1170-240c5.5,0,13.18,3.18,17.07,7.07L1412.93-7.07C1416.82-3.18,1420,4.5,1420,10V310c0,5.5-3.18,13.18-7.07,17.07l-85.86,85.86c-3.89,3.89-7.07,11.57-7.07,17.07V950c0,5.5,3.18,13.18,7.07,17.07l85.86,85.86c3.89,3.89,7.07,11.57,7.07,17.07v280c0,5.5-3.18,13.18-7.07,17.07l-225.86,225.86c-3.89,3.89-11.57,7.07-17.07,7.07H710c-5.5,0-13.18-3.18-17.07-7.07L467.07,1367.07c-3.89-3.89-7.07-11.57-7.07-17.07V1050c0-5.5-3.18-13.18-7.07-17.07l-85.86-85.86C363.18,943.18,360,935.5,360,930V450c0-5.5,3.18-13.18,7.07-17.07l85.86-85.86C456.82,343.18,460,335.5,460,330V10c0-5.5,3.18-13.18,7.07-17.07L692.93-232.93C696.82-236.82,704.5-240,710-240Z" fill="#f2f2f2"/><path d="M-10,190c0-5.5,3.18-13.18,7.07-17.07L152.93,17.07C156.82,13.18,164.5,10,170,10H840c5.5,0,13.08,3.28,16.85,7.28l146.3,155.44c3.77,4,6.85,11.78,6.85,17.28V710c0,5.5-3.18,13.18-7.07,17.07L827.07,902.93C823.18,906.82,815.5,910,810,910H205c-5.5,0-13.22-3.14-17.16-7L-2.84,717C-6.78,713.14-10,705.5-10,700Z" fill="#e5e5e5"/><path d="M750,20c5.5,0,13.18,3.18,17.07,7.07L992.93,252.93c3.89,3.89,7.07,11.57,7.07,17.07V705c0,5.5-3.18,13.18-7.07,17.07L822.07,892.93C818.18,896.82,810.5,900,805,900H240c-5.5,0-13.18-3.18-17.07-7.07L67.07,737.07a9.83,9.83,0,0,1,.12-14L352.81,447c3.95-3.82,10.37-10.13,14.26-14l25.86-25.86a10,10,0,0,0,0-14.14L157.07,157.07a10,10,0,0,1,0-14.14L272.93,27.07C276.82,23.18,284.5,20,290,20Z" fill="#dbdbdb"/><path d="M980,270a10,10,0,0,1,10,10V700c0,5.5-3.18,13.18-7.07,17.07L817.07,882.93C813.18,886.82,805.5,890,800,890H380a10,10,0,0,1-10-10V455c0-5.5,3.18-13.18,7.07-17.07L537.93,277.07C541.82,273.18,549.5,270,555,270Z" fill="#ccc"/><path d="M460,330c0,5.5-3.18,13.18-7.07,17.07l-85.86,85.86C363.18,436.82,360,444.5,360,450V930c0,5.5,3.18,13.18,7.07,17.07l85.86,85.86c3.89,3.89,7.07,11.57,7.07,17.07V2130a10,10,0,0,1-10,10H430a10,10,0,0,1-10-10V1070c0-5.5-3.18-13.18-7.07-17.07l-85.86-85.86C323.18,963.18,320,955.5,320,950V430c0-5.5,3.18-13.18,7.07-17.07l85.86-85.86C416.82,323.18,420,315.5,420,310V-650a10,10,0,0,1,10-10h20a10,10,0,0,1,10,10Z" fill="#bbd5ea"/><path d="M80,490,346.46,223.54A13.91,13.91,0,0,1,355,220H485a13.91,13.91,0,0,1,8.54,3.54L636.46,366.46A13.91,13.91,0,0,1,640,375V615a13.91,13.91,0,0,1-3.54,8.54L373.54,886.46A13.91,13.91,0,0,1,365,890H245a13.91,13.91,0,0,1-8.54-3.54L80,730" fill="none" stroke="#29bdbe" stroke-miterlimit="10" stroke-width="6"/></svg>