<?xml version="1.0" encoding="utf-8"?>
<!-- Generator: Adobe Illustrator 23.0.0, SVG Export Plug-In . SVG Version: 6.00 Build 0)  -->
<svg version="1.1" id="Layer_1" xmlns="http://www.w3.org/2000/svg" xmlns:xlink="http://www.w3.org/1999/xlink" x="0px" y="0px"
	 viewBox="0 0 998 998" style="enable-background:new 0 0 998 998;" xml:space="preserve">
<path d="M973,436.3c-6.2-6.2-13.9-9.2-23.3-9.2H280.2L498.8,216c6.7-6.7,10-14.3,10-23s-3.4-16.3-10-23l-50-50
	c-6.7-6.7-14.3-10-23-10s-16.3,3.3-23,10l-366,356c-6.7,6.7-10,14.3-10,23s3.3,16.3,10,23l356,356c6.7,6.7,14.3,10,23,10
	s16.3-3.3,23-10l50-50c6.7-6.7,10-14.3,10-23s-3.3-16.3-10-23L269.7,562.9h680c9.5,0,17.2-3,23.3-9.2c6.2-6.2,9.2-13.9,9.2-23.3
	v-70.7C982.2,450.2,979.2,442.5,973,436.3z"/>
</svg>
