<?xml version="1.0" encoding="utf-8"?>
<!-- Generator: Adobe Illustrator 22.1.0, SVG Export Plug-In . SVG Version: 6.00 Build 0)  -->
<svg version="1.1" id="Layer_1" xmlns="http://www.w3.org/2000/svg" xmlns:xlink="http://www.w3.org/1999/xlink" x="0px" y="0px"
	 viewBox="0 0 998 998" style="enable-background:new 0 0 998 998;" xml:space="preserve">
<path d="M588.7,499l393-393c6.7-6.7,10-14.3,10-23s-3.3-16.3-10-23l-50-50c-6.7-6.7-14.3-10-23-10s-16.3,3.3-23,10L497.5,398.2
	L109.3,10c-6.7-6.7-14.3-10-23-10s-16.3,3.3-23,10l-50,50c-6.7,6.7-10,14.3-10,23s3.3,16.3,10,23l393,393l-393,393
	c-6.7,6.7-10,14.3-10,23s3.3,16.3,10,23l50,50c6.7,6.7,14.3,10,23,10s16.3-3.3,23-10l388.2-388.2L885.7,988c6.7,6.7,14.3,10,23,10
	s16.3-3.3,23-10l50-50c6.7-6.7,10-14.3,10-23s-3.3-16.3-10-23L588.7,499z"/>
</svg>
