<?xml version="1.0" encoding="utf-8"?>
<!-- Generator: Adobe Illustrator 22.1.0, SVG Export Plug-In . SVG Version: 6.00 Build 0)  -->
<svg version="1.1" id="Layer_1" xmlns="http://www.w3.org/2000/svg" xmlns:xlink="http://www.w3.org/1999/xlink" x="0px" y="0px"
	 viewBox="0 0 998 998" style="enable-background:new 0 0 998 998;" xml:space="preserve">
<path d="M748.8,83c0,8.7-3.3,16.3-10,23l-393,393l393,393c6.7,6.7,10,14.3,10,23s-3.3,16.3-10,23l-50,50c-6.7,6.7-14.3,10-23,10
	s-16.3-3.3-23-10l-466-466c-6.7-6.7-10-14.3-10-23s3.3-16.3,10-23l466-466c6.7-6.7,14.3-10,23-10s16.3,3.3,23,10l50,50
	C745.4,66.7,748.8,74.3,748.8,83z"/>
</svg>
