<?xml version="1.0" standalone="no"?>
<!DOCTYPE svg PUBLIC "-//W3C//DTD SVG 20010904//EN"
 "http://www.w3.org/TR/2001/REC-SVG-20010904/DTD/svg10.dtd">
<svg version="1.0" xmlns="http://www.w3.org/2000/svg"
 width="260.000000pt" height="260.000000pt" viewBox="0 0 260.000000 260.000000"
 preserveAspectRatio="xMidYMid meet">
<metadata>
Created by potrace 1.11, written by Peter Selinger 2001-2013
</metadata>
<g transform="translate(0.000000,260.000000) scale(0.100000,-0.100000)"
fill="#000000" stroke="none">
<path d="M320 1756 c-184 -50 -299 -202 -300 -396 0 -165 83 -298 230 -368 72
-35 80 -36 185 -37 103 0 114 2 175 31 62 29 140 93 140 114 0 5 -17 28 -39
51 l-38 41 -39 -38 c-58 -55 -115 -78 -198 -76 -157 2 -265 108 -272 267 -9
194 144 328 331 291 53 -10 90 -31 129 -71 35 -36 37 -36 90 22 28 31 28 32
10 57 -28 39 -112 92 -173 110 -64 19 -167 20 -231 2z"/>
<path d="M1245 1765 c-5 -1 -30 -8 -55 -16 -168 -49 -279 -203 -280 -389 -1
-233 167 -402 405 -409 76 -2 166 18 212 46 48 30 113 86 113 99 0 7 -17 31
-38 54 l-38 42 -40 -37 c-86 -83 -212 -103 -319 -51 -158 78 -203 292 -92 438
95 124 292 136 400 24 l34 -35 43 44 c46 47 46 46 0 96 -28 31 -100 69 -157
84 -50 13 -159 19 -188 10z"/>
<path d="M1890 1360 l0 -400 68 0 68 0 -1 275 c0 151 2 275 5 275 3 0 93 -124
200 -275 l194 -275 68 0 68 0 0 400 0 401 -67 -3 -68 -3 0 -272 c0 -150 -2
-273 -5 -273 -3 0 -93 124 -200 275 l-194 275 -68 0 -68 0 0 -400z"/>
</g>
</svg>
